<?xml version="1.0" standalone="no"?>
<!DOCTYPE svg PUBLIC "-//W3C//DTD SVG 20010904//EN"
 "http://www.w3.org/TR/2001/REC-SVG-20010904/DTD/svg10.dtd">
<svg version="1.0" xmlns="http://www.w3.org/2000/svg"
 width="320.000000pt" height="320.000000pt" viewBox="0 0 320.000000 320.000000"
 preserveAspectRatio="xMidYMid meet">
<metadata>
Created by potrace 1.11, written by Peter Selinger 2001-2013
</metadata>
<g transform="translate(0.000000,320.000000) scale(0.100000,-0.100000)"
fill="#000000" stroke="none">
<path d="M2086 2650 l-81 -79 32 -33 33 -32 38 37 39 38 44 -52 c125 -149 184
-285 214 -489 16 -108 16 -121 0 -230 -10 -63 -30 -149 -46 -192 -194 -529
-803 -764 -1295 -499 -70 38 -214 144 -214 159 0 3 15 22 34 42 l35 35 -31 34
-30 34 -84 -84 c-46 -46 -84 -91 -84 -101 0 -10 11 -25 24 -33 20 -13 29 -14
46 -5 19 10 27 8 59 -23 134 -127 341 -223 531 -247 154 -19 140 -8 140 -99 0
-63 -3 -80 -16 -85 -9 -3 -78 -6 -155 -6 -161 0 -200 -11 -247 -69 -17 -21
-38 -63 -47 -95 -14 -48 -20 -56 -41 -56 -28 0 -44 -28 -23 -41 18 -11 1120
-11 1138 0 19 12 6 41 -19 41 -11 0 -22 6 -24 12 -17 58 -42 114 -63 139 -48
56 -73 64 -248 69 l-160 5 -3 87 -3 86 28 5 c15 3 51 9 78 12 28 4 87 20 133
36 332 114 569 370 658 710 38 142 40 338 5 474 -43 169 -114 310 -219 434
-37 44 -46 60 -43 87 2 30 -17 54 -45 54 -4 0 -43 -36 -88 -80z"/>
<path d="M1375 2710 c-109 -17 -253 -79 -351 -151 -55 -40 -152 -143 -186
-197 l-20 -32 87 -42 c58 -27 105 -43 141 -46 51 -4 55 -3 100 37 26 22 52 41
59 41 20 0 169 -133 183 -164 20 -40 11 -61 -71 -173 -83 -112 -101 -123 -198
-123 -51 0 -63 -4 -91 -29 -32 -29 -33 -31 -31 -104 4 -92 -4 -100 -121 -129
-53 -13 -86 -26 -86 -34 0 -38 125 -196 209 -265 92 -75 248 -150 343 -164 42
-6 47 -5 54 17 4 12 7 52 6 88 0 54 -8 80 -41 153 -23 48 -41 99 -41 113 0 61
67 132 144 154 63 17 85 6 206 -105 107 -98 150 -122 306 -164 l104 -28 29 32
c41 47 84 112 115 173 31 62 27 73 -39 103 -38 17 -38 19 -12 19 15 0 39 -8
53 -17 21 -14 27 -14 34 -3 11 18 30 127 30 173 0 20 5 37 10 37 6 0 10 18 10
40 0 22 -4 40 -10 40 -5 0 -10 19 -10 43 0 51 -26 178 -38 186 -5 3 -17 32
-27 64 -10 31 -22 57 -26 57 -5 0 -16 15 -25 33 -9 17 -23 36 -30 40 -8 4 -14
13 -14 19 0 15 -122 138 -137 138 -7 0 -13 4 -13 10 0 5 -16 17 -35 26 -19 9
-35 20 -35 24 0 4 -19 15 -42 25 -24 9 -45 20 -48 24 -7 10 -124 41 -155 41
-14 0 -25 5 -25 10 0 6 -14 10 -31 10 l-32 0 6 -67 c4 -37 10 -69 14 -72 5 -3
17 -22 27 -41 11 -19 28 -41 38 -48 10 -7 18 -18 18 -23 0 -12 61 -73 88 -88
11 -6 57 -11 102 -11 110 0 118 -8 102 -103 -7 -39 -17 -74 -21 -77 -5 -3 -17
-25 -27 -50 -10 -25 -24 -50 -32 -56 -8 -6 -17 -34 -20 -64 -5 -53 14 -190 27
-190 4 0 13 -21 20 -46 9 -30 22 -49 37 -56 13 -6 24 -15 24 -19 0 -5 30 -10
68 -12 l67 -3 -72 -2 c-67 -2 -75 0 -103 26 -38 34 -77 145 -86 242 l-7 71 54
104 c44 87 53 114 54 157 l0 53 -89 3 c-105 3 -121 12 -201 110 -73 87 -95
137 -95 212 l0 60 -72 -1 c-40 -1 -95 -5 -123 -9z m196 -890 c22 -13 25 -52 5
-70 -8 -6 -25 -10 -38 -8 -30 4 -38 56 -12 75 21 16 20 16 45 3z"/>
<path d="M1526 1793 c-4 -9 -2 -21 3 -26 15 -15 41 0 41 23 0 25 -35 28 -44 3z"/>
<path d="M810 2295 c0 -8 -4 -15 -10 -15 -5 0 -17 -27 -27 -60 -9 -33 -20 -60
-24 -60 -14 0 -33 -137 -33 -240 0 -101 19 -240 33 -240 4 0 12 -20 19 -45 7
-28 18 -45 27 -45 8 0 15 4 15 9 0 5 23 11 50 15 59 8 101 25 114 45 5 8 8 45
7 83 -2 64 -1 70 29 99 28 29 37 32 116 37 49 3 91 10 97 17 7 7 23 27 37 45
14 17 35 44 47 58 13 15 23 30 23 33 0 3 11 19 26 35 45 52 19 107 -90 189
-15 11 -36 28 -47 37 -18 17 -20 16 -61 -27 -36 -38 -49 -45 -79 -45 -46 0
-139 21 -139 31 0 4 -22 15 -50 25 -27 10 -50 22 -50 26 0 4 -7 8 -15 8 -8 0
-15 -7 -15 -15z"/>
<path d="M1480 1651 c0 -5 -12 -11 -27 -14 -16 -3 -48 -25 -72 -48 -36 -35
-44 -49 -45 -81 0 -21 4 -42 10 -46 6 -4 18 -27 28 -52 10 -25 23 -48 29 -52
8 -5 12 -44 12 -117 l0 -109 43 -6 c48 -6 244 12 252 24 3 4 32 15 65 25 33 9
62 20 65 24 3 4 24 15 48 25 23 11 42 23 42 28 0 5 11 13 25 18 14 5 28 17 31
25 4 8 11 15 18 15 13 1 61 39 55 44 -2 2 -43 11 -91 21 -49 10 -88 21 -88 25
0 3 -23 12 -51 19 -37 10 -65 26 -102 62 -28 27 -54 49 -58 49 -4 0 -29 22
-56 49 -26 27 -58 52 -70 56 -13 3 -23 11 -23 16 0 5 -9 9 -20 9 -11 0 -20 -4
-20 -9z"/>
</g>
</svg>
